:SAMPLES-PER-SECOND 30
:FULLY-SPECIFIED
:DEGREES
62
root  -32.0948 16.2528 5.73992 154.141 70.1295 136.813
RightUpLeg  -69.328 -12.8261 28.1724
RightLeg  134.269 35.6625 -20.4309
RightFoot  -38.1272 1.61172 7.20865
RightToes  1.16415e-010 -3.18055e-015 8.94531e-016
Spine  56.5583 -5.34196 -5.27478
Spine1  10.1871 -5.20138 -11.0607
HEad  -46.7937 0.591669 20.1675
LeftShoulder1  0 -2.69403e-036 -1.28585e-037
LeftArm  13.2133 -19.2512 -58.936
LeftForeArm  -10.2535 -48.2486 30.9229
LeftHand  -1.79618 1.54686 35.9001
RightShoulder  -2.48481e-017 0 -8.08114e-019
RightArm  -5.57933 42.5233 83.2736
RightForeArm  6.49225 7.51584 -7.7945
RightHand  6.42725 -19.7589 -35.0175
LeftUpLeg  -54.1789 -17.0947 23.3431
LeftLeg  132.104 6.69656 -22.4218
LeftFoot  -29.7116 -2.75551 -18.4435
LeftToes  4.502e-010 -1.85808e-011 5.37561e-011
63
root  -31.0486 16.3071 5.99167 154.803 69.7643 135.097
RightUpLeg  -67.5998 -13.7108 27.3264
RightLeg  135.044 32.898 -17.8834
RightFoot  -38.0756 1.29384 5.78941
RightToes  1.16415e-010 -3.18055e-015 8.94531e-016
Spine  57.0963 -4.68598 -7.84932
Spine1  6.74236 -7.22738 -7.91407
HEad  -45.2573 2.19274 19.139
LeftShoulder1  0 -2.69403e-036 -1.28585e-037
LeftArm  11.8226 -24.2062 -56.96
LeftForeArm  -2.21984 -47.8228 31.2413
LeftHand  -2.24214 -0.244078 30.2471
RightShoulder  -2.48481e-017 0 -8.08114e-019
RightArm  -1.89702 39.3781 88.1213
RightForeArm  8.28936 11.1801 -7.82098
RightHand  6.72912 -20.0498 -36.2149
LeftUpLeg  -53.2654 -16.6408 22.8336
LeftLeg  130.904 4.63737 -21.2213
LeftFoot  -28.7819 -2.63026 -18.6697
LeftToes  4.502e-010 -1.85808e-011 5.37561e-011
64
root  -30.1249 16.4933 6.25521 155.055 69.5296 132.854
RightUpLeg  -66.6036 -13.3766 25.959
RightLeg  135.063 30.1715 -15.7637
RightFoot  -37.3933 0.996599 4.57467
RightToes  1.16415e-010 -3.18055e-015 8.94531e-016
Spine  58.2672 -3.55222 -10.7138
Spine1  2.79614 -9.03862 -3.58948
HEad  -43.845 4.23589 17.2962
LeftShoulder1  0 -2.69403e-036 -1.28585e-037
LeftArm  7.61793 -31.0627 -54.1223
LeftForeArm  -1.10374 -48.6269 31.9807
LeftHand  -1.95385 0.239631 29.2824
RightShoulder  -2.48481e-017 0 -8.08114e-019
RightArm  4.75775 36.5467 92.9023
RightForeArm  7.35363 14.2829 -9.15413
RightHand  6.95821 -20.2164 -37.2517
LeftUpLeg  -52.5944 -14.9607 21.7184
LeftLeg  129.39 2.13905 -19.5387
LeftFoot  -27.8812 -2.53835 -19.1451
LeftToes  4.502e-010 -1.85808e-011 5.37561e-011
65
root  -29.2659 16.8184 6.48974 155.222 69.7084 130.327
RightUpLeg  -66.2365 -12.0146 24.6952
RightLeg  133.869 28.1625 -14.7589
RightFoot  -36.2776 0.772746 3.7116
RightToes  1.16415e-010 -3.18055e-015 8.94531e-016
Spine  59.533 -2.6782 -12.9521
Spine1  -1.26575 -10.3232 0.0933503
HEad  -42.7402 6.39205 15.6712
LeftShoulder1  0 -2.69403e-036 -1.28585e-037
LeftArm  4.81872 -39.2667 -50.0788
LeftForeArm  -1.93604 -47.2801 30.8457
LeftHand  -1.74888 0.811393 29.69
RightShoulder  -2.48481e-017 0 -8.08114e-019
RightArm  11.7716 33.7899 97.0548
RightForeArm  4.87202 16.3951 -12.0997
RightHand  7.2514 -20.4168 -38.5748
LeftUpLeg  -51.8148 -13.1111 20.3618
LeftLeg  126.975 -0.203115 -18.2554
LeftFoot  -27.686 -2.61353 -19.9822
LeftToes  4.502e-010 -1.85808e-011 5.37561e-011
66
root  -28.4139 17.2386 6.64292 156.023 70.255 128.379
RightUpLeg  -65.6744 -10.4161 23.4837
RightLeg  131.853 26.3287 -14.1589
RightFoot  -35.8277 0.551106 2.69
RightToes  1.16415e-010 -3.18055e-015 8.94531e-016
Spine  60.5385 -2.33206 -14.3345
Spine1  -4.99905 -11.2201 2.94576
HEad  -41.8484 8.45335 14.4795
LeftShoulder1  0 -2.69403e-036 -1.28585e-037
LeftArm  4.49231 -47.1026 -45.2669
LeftForeArm  -3.94017 -42.4509 27.3479
LeftHand  -1.67885 0.702375 27.9963
RightShoulder  -2.48481e-017 0 -8.08114e-019
RightArm  18.2046 30.5525 101.042
RightForeArm  2.28859 17.7691 -15.3724
RightHand  7.47333 -20.5518 -39.5975
LeftUpLeg  -51.0876 -12.0959 19.4096
LeftLeg  123.752 -1.86201 -17.9874
LeftFoot  -27.881 -2.71192 -20.4677
LeftToes  4.502e-010 -1.85808e-011 5.37561e-011
67
root  -27.5333 17.679 6.69222 157.27 71.564 127.141
RightUpLeg  -64.2356 -8.58204 22.2876
RightLeg  129.513 24.191 -13.2263
RightFoot  -36.2949 0.330495 1.55975
RightToes  1.16415e-010 -3.18055e-015 8.94531e-016
Spine  61.1796 -1.97473 -14.9499
Spine1  -8.2156 -11.4062 5.3753
HEad  -41.1607 9.99627 13.1321
LeftShoulder1  0 -2.69403e-036 -1.28585e-037
LeftArm  4.72794 -53.2154 -40.8932
LeftForeArm  -6.27936 -35.8103 23.5449
LeftHand  -1.51963 0.697775 25.6407
RightShoulder  -2.48481e-017 0 -8.08114e-019
RightArm  23.3284 27.8258 104.182
RightForeArm  0.816396 18.4395 -17.3294
RightHand  7.65061 -20.6712 -40.3551
LeftUpLeg  -50.1275 -11.2115 19.1999
LeftLeg  120.408 -2.84872 -18.6102
LeftFoot  -27.8607 -2.64202 -19.9624
LeftToes  4.502e-010 -1.85808e-011 5.37561e-011
68
root  -26.6223 18.0585 6.64616 158.351 73.9937 126.223
RightUpLeg  -62.1002 -6.11125 21.4035
RightLeg  127.246 21.9926 -11.9248
RightFoot  -36.75 0.207897 0.93612
RightToes  1.16415e-010 -3.18055e-015 8.94531e-016
Spine  61.282 -1.21984 -14.8447
Spine1  -10.637 -10.5634 7.05658
HEad  -40.7509 10.7934 11.4579
LeftShoulder1  0 -2.69403e-036 -1.28585e-037
LeftArm  6.24072 -57.7256 -38.3365
LeftForeArm  -9.21266 -28.8698 20.6364
LeftHand  -1.27043 1.06718 23.88
RightShoulder  -2.48481e-017 0 -8.08114e-019
RightArm  25.728 25.6436 106.215
RightForeArm  1.97012 18.4788 -17.1768
RightHand  7.95739 -20.9179 -41.4931
LeftUpLeg  -48.4369 -9.37683 19.5691
LeftLeg  117.543 -3.49636 -19.5001
LeftFoot  -27.4794 -2.43787 -18.9007
LeftToes  4.502e-010 -1.85808e-011 5.37561e-011
69
root  -25.7094 18.3607 6.5222 158.61 76.6321 125.138
RightUpLeg  -59.7447 -3.70827 20.4822
RightLeg  125.46 19.9753 -10.3275
RightFoot  -36.5251 0.17422 0.785659
RightToes  1.16415e-010 -3.18055e-015 8.94531e-016
Spine  61.1345 -0.418683 -14.2279
Spine1  -12.0763 -9.32372 7.85468
HEad  -40.5141 11.0444 9.8534
LeftShoulder1  0 -2.69403e-036 -1.28585e-037
LeftArm  2.93962 -61.4006 -37.4522
LeftForeArm  -6.36212 -22.6325 15.2592
LeftHand  -0.982081 1.42076 21.0984
RightShoulder  -2.48481e-017 0 -8.08114e-019
RightArm  25.5516 23.6824 107.335
RightForeArm  5.28547 18.1891 -15.8422
RightHand  8.33181 -21.2015 -42.8757
LeftUpLeg  -46.1518 -7.37319 19.7319
LeftLeg  115.223 -4.19597 -19.9489
LeftFoot  -26.5684 -2.18344 -18.0816
LeftToes  4.502e-010 -1.85808e-011 5.37561e-011
70
root  -24.8082 18.6304 6.34122 157.429 78.5999 123.045
RightUpLeg  -57.5262 -1.94743 18.9679
RightLeg  124.125 18.1179 -8.48932
RightFoot  -35.843 0.0840582 0.358387
RightToes  1.16415e-010 -3.18055e-015 8.94531e-016
Spine  60.9631 0.149887 -13.4845
Spine1  -12.7264 -8.30609 8.27921
HEad  -40.3526 10.9243 8.49123
LeftShoulder1  0 -2.69403e-036 -1.28585e-037
LeftArm  -6.94961 -64.579 -37.6812
LeftForeArm  2.90115 -16.1793 8.3606
LeftHand  -0.750205 1.54266 17.7854
RightShoulder  -2.48481e-017 0 -8.08114e-019
RightArm  23.5267 21.793 107.78
RightForeArm  9.79344 17.771 -14.2969
RightHand  8.60026 -21.3718 -43.9307
LeftUpLeg  -44.0636 -6.26315 19.1544
LeftLeg  113.253 -5.0991 -19.6449
LeftFoot  -24.5357 -1.78867 -17.4596
LeftToes  4.502e-010 -1.85808e-011 5.37561e-011
71
root  -23.9153 18.9097 6.10653 155.07 80.1316 119.708
RightUpLeg  -55.5926 -0.467724 17.0317
RightLeg  122.645 16.4858 -6.75549
RightFoot  -35.3059 -0.0978781 -0.558354
RightToes  1.16415e-010 -3.18055e-015 8.94531e-016
Spine  60.6738 0.583135 -12.6739
Spine1  -13.0022 -7.41482 8.73068
HEad  -40.4217 10.3961 7.22836
LeftShoulder1  0 -2.69403e-036 -1.28585e-037
LeftArm  -11.6576 -67.1724 -39.4425
LeftForeArm  6.32818 -9.86285 5.5157
LeftHand  -0.470971 1.94388 14.6803
RightShoulder  -2.48481e-017 0 -8.08114e-019
RightArm  19.6276 20.1317 107.691
RightForeArm  15.5925 17.09 -12.4423
RightHand  8.82045 -21.5037 -44.7938
LeftUpLeg  -43.0355 -5.88495 18.1135
LeftLeg  111.684 -6.05857 -18.7107
LeftFoot  -20.7876 -1.15554 -16.829
LeftToes  4.502e-010 -1.85808e-011 5.37561e-011
72
root  -23.0344 19.1897 5.79752 152.52 81.9535 115.889
RightUpLeg  -53.878 1.13826 15.4571
RightLeg  120.52 15.325 -5.64358
RightFoot  -35.1992 -0.25232 -1.35059
RightToes  1.16415e-010 -3.18055e-015 8.94531e-016
Spine  60.1613 1.02385 -11.5503
Spine1  -13.0738 -6.33793 9.22264
HEad  -40.911 9.61878 6.06329
LeftShoulder1  0 -2.69403e-036 -1.28585e-037
LeftArm  -11.0857 -69.1267 -41.987
LeftForeArm  4.80565 -5.56669 5.14321
LeftHand  -0.0756061 2.8231 10.8359
RightShoulder  -2.48481e-017 0 -8.08114e-019
RightArm  14.6117 18.8674 107.191
RightForeArm  22.1755 16.0225 -10.2555
RightHand  9.10525 -21.6923 -45.8197
LeftUpLeg  -43.3267 -5.53317 17.247
LeftLeg  110.885 -6.80294 -17.4879
LeftFoot  -15.7139 -0.36784 -16.1365
LeftToes  4.502e-010 -1.85808e-011 5.37561e-011
73
root  -22.1755 19.4221 5.39591 150.648 84.2007 112.661
RightUpLeg  -52.1845 2.63543 14.5768
RightLeg  117.951 14.6361 -5.18891
RightFoot  -35.4361 -0.310909 -1.63472
RightToes  1.16415e-010 -3.18055e-015 8.94531e-016
Spine  59.4402 1.42602 -10.0364
Spine1  -12.8275 -5.10908 9.86607
HEad  -41.7491 9.02266 5.07413
LeftShoulder1  0 -2.69403e-036 -1.28585e-037
LeftArm  -9.31958 -70.4356 -45.3218
LeftForeArm  3.36732 -2.79311 4.61988
LeftHand  0.206906 3.48485 7.61111
RightShoulder  -2.48481e-017 0 -8.08114e-019
RightArm  10.5088 17.9198 106.335
RightForeArm  27.6344 14.9079 -8.39919
RightHand  9.36381 -21.8486 -46.7711
LeftUpLeg  -44.6011 -5.00305 16.7176
LeftLeg  111.298 -7.09493 -16.4122
LeftFoot  -10.6205 0.30556 -14.0011
LeftToes  4.502e-010 -1.85808e-011 5.37561e-011
